<!-- icon666.com - MILLIONS vector ICONS FREE --><svg clip-rule="evenodd" fill-rule="evenodd" stroke-linejoin="round" stroke-miterlimit="2" viewBox="0 0 28 28" xmlns="http://www.w3.org/2000/svg"><g transform="translate(-84 -126)"><g id="Icon"><path d="m110 131c0-.552-.448-1-1-1h-22c-.552 0-1 .448-1 1v18c0 .552.448 1 1 1h22c.552 0 1-.448 1-1zm-16.951 8.537-3.756 3.756c-.39.39-.39 1.024 0 1.414s1.024.39 1.414 0l3.958-3.958 2.735 2.051c.356.267.844.267 1.2 0l2.777-2.083 3.99 3.99c.39.39 1.024.39 1.414 0s.39-1.024 0-1.414l-3.788-3.788 3.607-2.705c.442-.331.531-.958.2-1.4s-.958-.531-1.4-.2l-7.4 5.55-7.4-5.55c-.442-.331-1.069-.242-1.4.2s-.242 1.069.2 1.4z"></path></g></g></svg>