<?xml version="1.0" standalone="no"?>
<!DOCTYPE svg PUBLIC "-//W3C//DTD SVG 20010904//EN"
 "http://www.w3.org/TR/2001/REC-SVG-20010904/DTD/svg10.dtd">
<svg version="1.0" xmlns="http://www.w3.org/2000/svg"
 width="260.000000pt" height="260.000000pt" viewBox="0 0 260.000000 260.000000"
 preserveAspectRatio="xMidYMid meet">
<metadata>
Created by potrace 1.14, written by Peter Selinger 2001-2017
</metadata>
<g transform="translate(0.000000,260.000000) scale(0.100000,-0.100000)"
fill="#000000" stroke="none">
<path d="M0 1300 l0 -1300 1300 0 1300 0 0 1300 0 1300 -1300 0 -1300 0 0
-1300z m1728 806 c149 -83 224 -263 194 -467 -22 -151 -84 -243 -203 -303
l-68 -34 46 -16 c106 -36 176 -99 210 -188 14 -35 18 -95 22 -323 6 -273 7
-280 27 -283 11 -2 28 5 37 15 19 21 47 122 47 170 0 35 17 53 31 32 12 -18 1
-114 -18 -159 -57 -140 -263 -177 -340 -61 -23 34 -23 37 -23 375 0 420 0 422
-122 425 l-38 1 0 -415 0 -415 40 0 c29 0 40 -4 40 -15 0 -13 -29 -15 -200
-15 -171 0 -200 2 -200 15 0 11 12 15 45 15 l45 0 0 825 0 825 -39 0 c-39 0
-57 10 -43 24 3 4 108 6 232 4 l225 -3 53 -29z m-712 -813 l100 -828 29 -5
c16 -3 29 -9 29 -15 1 -6 -66 -11 -176 -13 -154 -2 -178 0 -178 13 0 10 10 15
30 15 17 0 30 4 30 8 0 15 -20 226 -26 270 l-5 42 -103 0 -102 0 -12 -89 c-7
-48 -12 -106 -12 -128 0 -47 27 -88 65 -97 14 -4 25 -13 25 -21 0 -12 -20 -15
-110 -15 -88 0 -110 3 -110 14 0 8 14 19 30 25 58 20 61 36 165 861 53 421 98
771 101 778 2 8 25 12 67 12 l63 0 100 -827z"/>
<path d="M1530 1715 l0 -395 39 0 c56 0 88 15 106 49 13 25 15 82 15 361 l0
331 -25 24 c-20 21 -34 25 -80 25 l-55 0 0 -395z"/>
<path d="M706 1272 c-27 -213 -51 -404 -54 -424 l-5 -38 100 0 99 0 -41 420
c-22 230 -43 421 -46 424 -2 2 -26 -169 -53 -382z"/>
</g>
</svg>
