<!-- icon666.com - MILLIONS vector ICONS FREE --><svg id="Capa_1" enable-background="new 0 0 95.802 95.802" viewBox="0 0 95.802 95.802" xmlns="http://www.w3.org/2000/svg"><g><g><path d="m38.664 44.689s9.065-.673 9.065-11.306c0-10.632-7.417-15.819-16.813-15.819h-17.294-.508-13.114v59.414h13.114.508 17.294s18.873.597 18.873-17.536c.001 0 .824-14.753-11.125-14.753zm-25.042-16.564h15.069 2.226s4.203 0 4.203 6.181-2.473 7.077-5.275 7.077h-16.223zm16.497 38.295h-16.497v-15.879h17.294s6.264-.08 6.264 8.16c0 6.871-4.581 7.65-7.061 7.719z"></path><path d="m62.18 21.064h24.514v7.317h-24.514z"></path><path d="m74.961 32.682c-22.848 0-22.828 22.826-22.828 22.826s-1.566 22.713 22.829 22.713c0 0 20.331 1.162 20.331-15.801h-10.456s.349 6.391-9.526 6.391c0 0-10.455.699-10.455-10.34h30.785s3.368-25.789-20.68-25.789zm9.294 17.859h-19.517s1.277-9.158 10.455-9.158c9.179-.001 9.062 9.158 9.062 9.158z"></path></g></g><g></g><g></g><g></g><g></g><g></g><g></g><g></g><g></g><g></g><g></g><g></g><g></g><g></g><g></g><g></g></svg>